<svg width="963.653" height="70.005" viewBox="0 0 963.653 70.005" xmlns="http://www.w3.org/2000/svg"><g id="svgGroup" stroke-linecap="round" fill-rule="evenodd" font-size="9pt" stroke="#000" stroke-width="0.25mm" fill="#000" style="stroke:#000;stroke-width:0.25mm;fill:#000"><path d="M 733.703 70.003 L 805.203 70.003 A 29.344 29.344 0 0 0 812.485 69.187 C 818.794 67.566 822.468 63.502 823.717 56.788 A 31.721 31.721 0 0 0 824.203 51.003 L 824.203 47.653 A 29.344 29.344 0 0 0 823.387 40.371 C 821.766 34.062 817.702 30.387 810.988 29.138 A 31.721 31.721 0 0 0 805.203 28.653 L 795.253 28.653 L 795.253 19.003 A 29.344 29.344 0 0 0 794.437 11.721 C 792.816 5.412 788.752 1.737 782.038 0.488 A 31.721 31.721 0 0 0 776.253 0.003 L 733.703 0.003 L 733.703 12.653 L 773.253 12.653 A 31.845 31.845 0 0 1 775.941 12.746 C 779.904 13.088 781.013 14.482 781.215 18.812 A 39.698 39.698 0 0 1 781.253 20.653 L 781.253 28.653 L 734.453 28.653 L 734.453 41.353 L 802.203 41.353 C 808.34 41.353 809.902 42.276 810.16 47.359 A 38.618 38.618 0 0 1 810.203 49.303 L 810.203 49.353 A 31.838 31.838 0 0 1 810.107 52.086 C 809.764 55.987 808.383 57.109 804.039 57.315 A 39.11 39.11 0 0 1 802.203 57.353 L 733.703 57.353 L 733.703 70.003 Z M 92.053 0.003 L 19.003 0.003 A 29.344 29.344 0 0 0 11.721 0.818 C 5.412 2.44 1.737 6.503 0.488 13.217 A 31.721 31.721 0 0 0 0.003 19.003 L 0.003 51.003 A 29.344 29.344 0 0 0 0.818 58.285 C 2.44 64.594 6.503 68.268 13.217 69.517 A 31.721 31.721 0 0 0 19.003 70.003 L 92.053 70.003 L 92.053 57.353 L 22.003 57.353 A 31.026 31.026 0 0 1 19.269 57.254 C 15.369 56.902 14.246 55.497 14.041 51.177 A 38.639 38.639 0 0 1 14.003 49.353 L 14.003 20.653 A 31.026 31.026 0 0 1 14.102 17.919 C 14.453 14.019 15.858 12.896 20.179 12.691 A 38.639 38.639 0 0 1 22.003 12.653 L 92.053 12.653 L 92.053 0.003 Z M 371.203 0.003 L 298.903 0.003 L 298.903 12.653 L 368.203 12.653 A 31.026 31.026 0 0 1 370.936 12.752 C 374.837 13.103 375.959 14.508 376.165 18.829 A 38.639 38.639 0 0 1 376.203 20.653 L 376.203 49.353 A 31.026 31.026 0 0 1 376.104 52.086 C 375.752 55.987 374.347 57.109 370.027 57.315 A 38.639 38.639 0 0 1 368.203 57.353 L 298.903 57.353 L 298.903 70.003 L 371.203 70.003 A 29.344 29.344 0 0 0 378.485 69.187 C 384.794 67.566 388.468 63.502 389.717 56.788 A 31.721 31.721 0 0 0 390.203 51.003 L 390.203 19.003 A 29.344 29.344 0 0 0 389.387 11.721 C 387.766 5.412 383.702 1.737 376.988 0.488 A 31.721 31.721 0 0 0 371.203 0.003 Z M 676.353 70.003 L 691.403 70.003 L 691.403 68.053 L 641.153 0.003 L 626.853 0.003 L 576.653 68.053 L 576.653 70.003 L 591.603 70.003 L 633.903 12.953 L 676.353 70.003 Z M 873.903 0.003 L 873.903 70.003 L 963.653 70.003 L 963.653 57.353 L 888.053 57.353 L 888.053 0.003 L 873.903 0.003 Z M 226.303 0.003 L 164.653 0.003 A 29.344 29.344 0 0 0 157.371 0.818 C 151.062 2.44 147.387 6.503 146.138 13.217 A 31.721 31.721 0 0 0 145.653 19.003 L 145.653 51.003 A 29.344 29.344 0 0 0 146.468 58.285 C 148.09 64.594 152.153 68.268 158.867 69.517 A 31.721 31.721 0 0 0 164.653 70.003 L 226.303 70.003 A 29.344 29.344 0 0 0 233.585 69.187 C 239.894 67.566 243.568 63.502 244.817 56.788 A 31.721 31.721 0 0 0 245.303 51.003 L 245.303 19.003 A 29.344 29.344 0 0 0 244.487 11.721 C 242.866 5.412 238.802 1.737 232.088 0.488 A 31.721 31.721 0 0 0 226.303 0.003 Z M 159.653 49.353 L 159.653 20.653 A 31.026 31.026 0 0 1 159.752 17.919 C 160.103 14.019 161.508 12.896 165.829 12.691 A 38.639 38.639 0 0 1 167.653 12.653 L 223.303 12.653 A 31.845 31.845 0 0 1 225.991 12.746 C 229.954 13.088 231.063 14.482 231.265 18.812 A 39.698 39.698 0 0 1 231.303 20.653 L 231.303 49.353 A 31.838 31.838 0 0 1 231.207 52.086 C 230.864 55.987 229.483 57.109 225.139 57.315 A 39.11 39.11 0 0 1 223.303 57.353 L 167.653 57.353 A 31.026 31.026 0 0 1 164.919 57.254 C 161.019 56.902 159.896 55.497 159.691 51.177 A 38.639 38.639 0 0 1 159.653 49.353 Z M 446.753 70.003 L 531.803 70.003 L 531.803 57.353 L 446.753 57.353 L 446.753 70.003 Z M 446.753 12.653 L 530.603 12.653 L 530.603 0.003 L 446.753 0.003 L 446.753 12.653 Z M 447.503 28.653 L 447.503 41.353 L 477.703 41.353 L 477.703 28.653 L 447.503 28.653 Z" vector-effect="non-scaling-stroke"/></g></svg>